<svg width="525" height="610" viewBox="0 0 525 610" fill="none" xmlns="http://www.w3.org/2000/svg">
<path d="M413.607 214.176C461.6 244.17 485.593 259.167 493.823 278.37C501.01 295.137 501.01 314.12 493.823 330.89C485.593 350.09 461.6 365.087 413.607 395.084L188.2 535.964C134.935 569.254 108.302 585.9 86.3243 584.13C67.167 582.59 49.606 572.86 38.1467 557.43C25 539.73 25 508.324 25 445.51V163.749C25 100.937 25 69.5306 38.1467 51.8296C49.606 36.4002 67.167 26.6672 86.3243 25.1269C108.302 23.3602 134.935 40.0056 188.2 73.2962L413.607 214.176Z" stroke="black" stroke-width="50" stroke-linejoin="round"/>
</svg>
